# xmcd
#
# Track frame offsets:
# 150
# 11434
# 23913
# 33843
# 46103
# 58712
# 69375
# 82140
# 93248
# 104627
#
# Disc length: 1526 seconds
#
#
# Revision: 0
# Processed by: cddbd v1.5.2PL0 Copyright (c) Steve Scherf et al.
# Submitted via: FreeRIP 2.945 
#
DISCID=7705f40a
DTITLE=Various Artist - Country Ladies
DYEAR=2003
DGENRE=Folk
TTITLE0=Skeeter Davis  Gonna Get Along Without You Now
TTITLE1=Wanda Jackson  Crazy
TTITLE2=Kitty Wells  I Can't Stop Loving You
TTITLE3=Lynn Anderson  How Can I Unlove You
TTITLE4=Jeannie Seely  I'll Love You More (Than You Need)
TTITLE5=Connie Smith  Ain't Had No Lovin'
TTITLE6=Jeannie C. Riley  There Never Was A Time
TTITLE7=Jean Shepard  A Satisfied Mind
TTITLE8=Donna Fargo  Superman
TTITLE9=Susan Raye  Pitty, Pitty, Patter
EXTD=
EXTT0=
EXTT1=
EXTT2=
EXTT3=
EXTT4=
EXTT5=
EXTT6=
EXTT7=
EXTT8=
EXTT9=
PLAYORDER=
